PathFileType	4	(X/Y/Z)	D:\TRACE\spot_10-12-23\spot_arm_body_motion_3_5-platform.trc
DataRate	CameraRate	NumFrames	NumMarkers	Units	OrigDataRate	OrigDataStartFrame	OrigNumFrames
100.00	100.00	      42	5	mm	100.00	876	      7000
Frame#	Time	Left_Front			Right_Front			Left_Aft			Right_Aft			Post			
		X1	Y1	Z1	X2	Y2	Z2	X3	Y3	Z3	X4	Y4	Z4	X5	Y5	Z5	

876	8.750	-790.13885	-21.26848	-647.36011	782.66589	-16.49286	-640.74719	-707.01459	23.72870	489.73621	710.42810	31.91388	575.67261	-6.76226	702.79889	-995.80457	
877	8.760	-789.91492	-21.59711	-647.44293	782.78583	-16.54005	-640.76544	-706.96924	23.90619	489.66125	710.49225	32.05960	575.67078	-6.35197	702.64740	-996.19598	
878	8.770	-789.81909	-21.82835	-647.58392	782.76434	-16.68449	-640.87482	-706.93848	23.96362	489.60315	710.48187	32.08079	575.60730	-6.46663	702.19989	-996.30707	
879	8.780	-789.77209	-21.96126	-647.73138	782.88757	-16.88871	-640.91248	-706.91675	24.03680	489.47031	710.39404	32.06546	575.51733	-6.39018	701.81201	-996.59668	
880	8.790	-789.68329	-22.22256	-647.70636	783.20404	-17.18933	-640.84113	-706.85364	24.17317	489.46811	710.48535	32.24740	575.51801	-6.38148	701.55536	-996.84979	
881	8.800	-789.53802	-22.35933	-647.70300	783.16235	-17.24609	-640.89679	-706.66681	24.32997	489.44357	710.64105	32.51704	575.53156	-6.25795	701.31567	-997.02893	
882	8.810	-789.50458	-22.56516	-647.72772	783.44531	-17.40486	-640.86334	-706.55127	24.43987	489.51123	711.59467	32.90078	575.13483	-6.19054	701.05231	-997.15247	
883	8.820	-789.36261	-22.84406	-647.82635	783.49811	-17.57068	-640.87256	-706.44800	24.51457	489.45044	711.55469	32.99449	575.15875	-6.05453	700.86389	-997.37744	
884	8.830	-789.40399	-23.09494	-647.88605	783.52136	-17.94242	-640.98779	-706.38934	24.55732	489.40344	711.44928	33.02877	575.04449	-6.18485	700.59644	-997.46594	
885	8.840	-789.30371	-23.18875	-647.97925	783.73492	-18.29178	-640.93494	-706.32922	24.64881	489.36685	711.43616	33.06854	575.02637	-5.99196	700.37610	-997.81250	
886	8.850	-789.12500	-23.39539	-647.97101	783.63623	-18.37122	-641.01434	-706.21222	24.74879	489.40900	711.46008	33.18346	575.01630	-5.89204	700.20148	-997.84277	
887	8.860	-788.95862	-23.64497	-647.95844	783.68445	-18.41192	-640.98126	-706.10303	24.81339	489.39893	711.59442	33.37404	574.96204	-5.82923	700.10901	-997.91034	
888	8.870	-788.75275	-23.87737	-647.99518	783.86237	-18.50667	-640.86084	-706.00079	24.95329	489.35651	711.71185	33.48613	574.87817	-5.54661	699.84357	-998.16992	
889	8.880	-788.85956	-23.90729	-648.12445	783.89630	-18.72158	-640.91351	-706.02911	25.04268	489.23477	711.74945	33.56207	574.81219	-5.69859	699.80981	-998.21942	
890	8.890	-788.81604	-24.03854	-648.16193	783.87958	-18.90480	-640.96741	-706.01923	25.16720	489.21213	711.80157	33.63020	574.76965	-5.43419	699.62769	-998.38324	
891	8.900	-788.47858	-24.12616	-648.26282	783.95276	-18.99313	-640.94336	-705.96051	25.15505	489.12100	711.83014	33.74596	574.78253	-5.50022	699.47021	-998.41345	
892	8.910	-788.33484	-24.21533	-648.27496	783.96381	-19.10510	-640.96014	-705.95789	25.24989	489.11435	711.84521	33.85166	574.74994	-5.50371	699.32611	-998.43549	
893	8.920	-788.40552	-24.21250	-648.27124	784.03558	-19.14449	-640.94543	-705.91852	25.31383	489.09903	711.86578	33.90525	574.71674	-5.42710	699.20630	-998.53363	
894	8.930	-788.67590	-24.12199	-648.20764	783.95435	-19.24962	-641.08929	-705.91412	25.39982	489.00064	711.90027	33.92934	574.67157	-5.41444	699.05591	-998.68335	
895	8.940	-788.66919	-24.25344	-648.21570	783.96332	-19.30437	-641.14478	-705.88159	25.39206	488.92972	711.91785	33.96095	574.62811	-5.47955	698.83197	-998.95099	
896	8.950	-788.55811	-24.34680	-648.20648	783.97406	-19.36145	-641.15704	-705.89240	25.43846	488.92587	711.92249	33.97722	574.65289	-5.45322	698.67523	-999.03931	
897	8.960	-788.41608	-24.50635	-648.15857	783.96271	-19.39129	-641.24823	-705.82776	25.47765	488.86844	711.91943	34.04095	574.66052	-5.36951	698.54504	-999.13556	
898	8.970	-788.44409	-24.45368	-648.17773	784.29797	-19.29384	-640.99493	-705.78223	25.50334	488.92715	711.91492	34.05050	574.67407	-5.28178	698.45013	-999.32068	
899	8.980	-788.51740	-24.38155	-648.22736	784.32959	-19.31998	-641.02155	-705.70062	25.53175	488.89346	711.92743	34.10762	574.65015	-5.24763	698.36389	-999.44104	
900	8.990	-788.53857	-24.39166	-648.24207	784.15936	-19.24401	-641.12726	-705.70367	25.59913	488.87268	711.86804	34.13925	574.65369	-5.21101	698.29614	-999.50537	
901	9.000	-788.38184	-24.23761	-648.27698	784.25519	-19.20260	-641.14764	-705.62848	25.56829	488.74210	711.81146	34.11121	574.66956	-5.16201	698.14337	-999.46948	
902	9.010	-788.25513	-24.35047	-648.21509	784.13702	-19.28959	-641.23083	-705.54602	25.66543	488.73575	711.85077	34.20257	574.70844	-5.14901	698.08417	-999.37805	
903	9.020	-788.33295	-24.67479	-648.21967	784.24506	-19.75389	-641.29340	-705.52869	25.82868	488.70419	711.95343	34.33451	574.67719	-5.15115	697.96973	-999.46082	
904	9.030	-788.51392	-25.01737	-648.29773	784.50604	-19.83820	-641.14862	-705.57776	25.80449	488.75757	712.30011	34.48454	574.54578	-4.89406	697.96307	-999.42859	
905	9.040	-788.54309	-24.69519	-648.30762	784.31812	-19.41830	-641.22211	-705.41620	25.76044	488.68970	712.12115	34.29245	574.53101	-5.01785	697.84210	-999.54626	
906	9.050	-788.31311	-24.50607	-648.27942	784.34711	-19.45726	-641.26453	-705.40247	25.68271	488.69357	712.01434	34.26393	574.64258	-5.05932	697.83936	-999.66730	
907	9.060	-788.08069	-24.61295	-648.19843	784.69580	-19.82084	-641.12561	-705.30835	25.71756	488.75735	712.02264	34.25553	574.67438	-5.12358	697.95563	-999.79669	
908	9.070	-787.96991	-24.64147	-648.15753	784.49451	-19.59004	-641.20984	-705.24005	25.68386	488.75882	712.45300	34.58152	574.66333	-5.16247	698.05804	-999.89911	
909	9.080	-788.14453	-24.63102	-648.19556	784.54865	-19.34572	-641.07758	-705.29871	25.81994	488.73041	711.98627	34.37587	574.77490	-5.20623	697.97559	-1000.00336	
910	9.090	-788.40265	-24.58159	-648.27106	784.43011	-19.37578	-641.19733	-705.10352	25.68180	488.71173	711.84656	34.14259	574.63477	-5.28315	697.95734	-1000.02386	
911	9.100	-788.44244	-24.69138	-648.30493	784.50189	-19.69547	-641.29639	-705.22186	25.67268	488.62756	711.82043	34.10928	574.59271	-5.35162	698.04602	-999.82306	
912	9.110	-788.04822	-24.65721	-648.20526	784.60480	-19.77988	-641.29651	-705.19275	25.67063	488.66217	711.91681	34.24345	574.71759	-5.20919	697.81696	-999.85962	
913	9.120	-787.85303	-24.70366	-648.13354	784.60815	-19.62986	-641.21600	-705.04431	25.75538	488.76779	712.01245	34.38234	574.73242	-4.64707	697.81873	-999.74335	
914	9.130	-787.92273	-24.73832	-648.18811	784.65521	-19.50592	-641.19281	-705.01184	25.86202	488.75140	712.09003	34.41379	574.62775	-4.60821	697.84558	-999.66858	
915	9.140	-788.17700	-24.67291	-648.25525	784.67383	-19.59626	-641.22980	-705.05481	25.77146	488.64041	712.01196	34.14285	574.44995	-4.62912	697.81171	-999.60150	
916	9.150	-788.20044	-24.65660	-648.25507	784.78137	-19.72903	-641.26849	-705.05865	25.67364	488.60709	711.82587	33.87613	574.32855	-4.67022	697.77155	-999.54193	
917	9.160	-787.82898	-24.74464	-648.15460	784.71063	-19.71433	-641.33801	-704.98462	25.66431	488.63089	712.16705	33.97921	574.09735	-4.61763	697.80536	-999.50616	
